<?xml version="1.0" encoding="UTF-8" standalone="no"?>
<svg width="154px" height="19px" viewBox="0 0 154 19" version="1.1" xmlns="http://www.w3.org/2000/svg" xmlns:xlink="http://www.w3.org/1999/xlink" xmlns:sketch="http://www.bohemiancoding.com/sketch/ns">
    <!-- Generator: Sketch 3.2.2 (9983) - http://www.bohemiancoding.com/sketch -->
    <title>connect</title>
    <desc>Created with Sketch.</desc>
    <defs></defs>
    <g id="Welcome" stroke="none" stroke-width="1" fill="none" fill-rule="evenodd" sketch:type="MSPage">
        <g id="Artboard-5" sketch:type="MSArtboardGroup" transform="translate(-784.000000, -1709.000000)" fill="#404040">
            <g id="connect" sketch:type="MSLayerGroup" transform="translate(784.000000, 1709.000000)">
                <path d="M148.605765,10.8483935 C148.314995,11.1379248 148.561072,11.6638623 148.561072,11.6638623 L150.749918,15.2699873 C150.749918,15.2699873 151.109072,15.745456 151.420842,15.745456 C151.733688,15.745456 152.042765,15.4920498 152.042765,15.4920498 L153.77338,13.0514873 C153.77338,13.0514873 153.947842,12.7433623 153.951611,12.4734873 C153.958072,12.090456 153.371688,11.9847373 153.371688,11.9847373 L149.274534,10.6874248 C149.274534,10.6874248 148.87338,10.5822373 148.605765,10.8483935 L148.605765,10.8483935 Z M148.398457,9.03098726 C148.607918,9.38161226 149.186226,9.27961226 149.186226,9.27961226 L153.274226,8.10076851 C153.274226,8.10076851 153.831534,7.87711226 153.910688,7.57908101 C153.988765,7.28104976 153.818611,6.92139351 153.818611,6.92139351 L151.865072,4.65083101 C151.865072,4.65083101 151.695995,4.36395601 151.34438,4.33473726 C150.957226,4.30233101 150.718688,4.76451851 150.718688,4.76451851 L148.408688,8.35045601 C148.409226,8.35098726 148.205149,8.70798726 148.398457,9.03098726 L148.398457,9.03098726 Z M146.466995,7.63273726 C146.94838,7.51586226 147.024842,6.82576851 147.024842,6.82576851 L146.991995,1.08401851 C146.991995,1.08401851 146.919303,0.375862262 146.596765,0.183549762 C146.090611,-0.119262738 145.940918,0.0390497622 145.796072,0.0597685122 L142.402149,1.30395601 C142.402149,1.30395601 142.069918,1.41233101 141.896534,1.68592476 C141.64938,2.07373726 142.147995,2.64111226 142.147995,2.64111226 L145.675457,7.38517476 C145.675457,7.38517476 146.023303,7.74058101 146.466995,7.63273726 L146.466995,7.63273726 Z M145.628611,9.95642476 C145.640995,9.51336226 145.089611,9.24773726 145.089611,9.24773726 L141.441534,7.42926851 C141.441534,7.42926851 140.900918,7.20933101 140.638688,7.36233101 C140.437842,7.47973726 140.259611,7.69117476 140.241842,7.87923726 L140.00438,10.7649873 C140.00438,10.7649873 139.968842,11.2648935 140.100226,11.4922685 C140.285995,11.8152685 140.898226,11.5900185 140.898226,11.5900185 L145.156918,10.6613935 C145.322765,10.551956 145.612995,10.5418623 145.628611,9.95642476 L145.628611,9.95642476 Z M146.687765,11.5135185 C146.322149,11.3281123 145.884918,11.7116748 145.884918,11.7116748 L143.033226,14.8088623 C143.033226,14.8088623 142.677303,15.282206 142.767765,15.573331 C142.852842,15.8458623 142.993918,15.981331 143.193688,16.076956 L146.057765,16.9683935 C146.057765,16.9683935 146.405072,17.0401123 146.667842,16.9646748 C147.040995,16.8573623 146.972072,16.280956 146.972072,16.280956 L147.036688,12.0877998 C147.036688,12.088331 147.022149,11.684581 146.687765,11.5135185 L146.687765,11.5135185 Z" id="Imported-Layers" sketch:type="MSShapeGroup"></path>
                <path d="M113.23754,3.14713889 L108.810437,3.14713889 C106.825563,3.14713889 104.957011,4.64813889 104.957011,6.38663889 C104.957011,8.16313889 106.310575,9.59711111 108.329816,9.59711111 C108.47046,9.59711111 108.606874,9.59447222 108.740115,9.58444444 C108.608989,9.83513889 108.515402,10.1169722 108.515402,10.4098889 C108.515402,10.9038889 108.781356,11.3039444 109.118161,11.6306389 C108.863839,11.6306389 108.617977,11.6380278 108.350966,11.6380278 C105.892345,11.6385556 104,13.2013056 104,14.8221111 C104,16.4175833 106.07423,17.4166667 108.532851,17.4166667 C111.335678,17.4166667 112.883287,15.8291111 112.883287,14.2331111 C112.883287,12.95325 112.504713,12.1869167 111.335149,11.3604167 C110.934897,11.0780556 110.169816,10.3903611 110.169816,9.98661111 C110.169816,9.51319444 110.305172,9.27938889 111.018966,8.72258333 C111.751793,8.15152778 112.269954,7.34877778 112.269954,6.41513889 C112.269954,5.30363889 111.774,4.22011111 110.842368,3.86227778 L112.247218,3.86227778 L113.23754,3.14713889 L113.23754,3.14713889 Z M111.690989,13.9576111 C111.725356,14.1053889 111.74492,14.2579167 111.74492,14.4130833 C111.74492,15.7029722 110.91269,16.7105 108.524391,16.7105 C106.824506,16.7105 105.597839,15.637 105.597839,14.3471111 C105.597839,13.0830833 107.11954,12.0306944 108.818368,12.0491667 C109.21492,12.0533889 109.585034,12.11725 109.920253,12.2254444 C110.842368,12.8661667 111.504345,13.2282222 111.690989,13.9576111 L111.690989,13.9576111 Z M108.970115,9.14691667 C107.830161,9.11261111 106.745724,7.87338889 106.548506,6.37819444 C106.352345,4.883 107.116897,3.73877778 108.257379,3.77255556 C109.397862,3.80686111 110.48177,5.0065 110.678989,6.50169444 C110.875678,7.99688889 110.110598,9.18122222 108.970115,9.14691667 L108.970115,9.14691667 Z M117.747126,6.31380556 L117.747126,3.14713889 L116.689655,3.14713889 L116.689655,6.31380556 L113.517241,6.31380556 L113.517241,7.36936111 L116.689655,7.36936111 L116.689655,10.5360278 L117.747126,10.5360278 L117.747126,7.36936111 L120.91954,7.36936111 L120.91954,6.31380556 L117.747126,6.31380556 L117.747126,6.31380556 Z" id="Fill-1" sketch:type="MSShapeGroup"></path>
                <path d="M5.28524138,16.8888889 L2.11494253,16.8888889 L2.11494253,8.44444444 L0,8.44444444 L0,5.53427778 L2.11494253,5.53322222 L2.11177011,3.819 C2.11124138,1.44452778 2.75629885,0 5.55806897,0 L7.89085057,0 L7.89085057,2.91069444 L6.43312644,2.91069444 C5.34234483,2.91069444 5.28947126,3.31708333 5.28947126,4.07655556 L5.28524138,5.53322222 L7.90724138,5.53322222 L7.59793103,8.44338889 L5.28735632,8.44444444 L5.28524138,16.8888889" id="Fill-2" sketch:type="MSShapeGroup"></path>
                <path d="M81.1103678,1.58333333 L69.8086437,1.58333333 C68.2642069,1.58333333 67,2.84525 67,4.38688889 L67,15.6681389 C67,17.2108333 68.2642069,18.47275 69.8086437,18.47275 L81.1103678,18.47275 C82.6558621,18.47275 83.920069,17.2108333 83.920069,15.6681389 L83.9195402,4.38688889 C83.9195402,2.84525 82.6553333,1.58333333 81.1103678,1.58333333 L81.1103678,1.58333333 Z M72.4163678,8.97222222 L78.5031724,8.97222222 C78.6184368,9.30313889 78.6818851,9.65833333 78.6818851,10.0277778 C78.6818851,11.8011111 77.2363218,13.2440556 75.4597701,13.2440556 C73.6832184,13.2440556 72.2376552,11.8011111 72.2376552,10.0277778 C72.2376552,9.65833333 72.3005747,9.30313889 72.4163678,8.97222222 L72.4163678,8.97222222 Z M81.8045977,8.97327778 L81.8045977,15.3055556 C81.8045977,15.8861111 81.3287356,16.3611111 80.7471264,16.3611111 L70.1724138,16.3611111 C69.5908046,16.3611111 69.1149425,15.8861111 69.1149425,15.3055556 L69.1149425,8.97222222 L70.7688276,8.97222222 C70.6921609,9.31211111 70.6514483,9.66466667 70.6514483,10.0277778 C70.6514483,12.6740556 72.8081609,14.8273889 75.4597701,14.8273889 C78.1108506,14.8273889 80.268092,12.6745833 80.268092,10.0277778 C80.268092,9.66466667 80.2273793,9.31211111 80.1507126,8.97222222 L81.8045977,8.97222222 L81.8045977,8.97327778 L81.8045977,8.97327778 Z M81.8045977,5.27777778 C81.8045977,5.56805556 81.5666667,5.80555556 81.2758621,5.80555556 L80.2183908,5.80555556 C79.9275862,5.80555556 79.6896552,5.56805556 79.6896552,5.27777778 L79.6896552,4.22222222 C79.6896552,3.93194444 79.9275862,3.69444444 80.2183908,3.69444444 L81.2758621,3.69444444 C81.5666667,3.69444444 81.8045977,3.93194444 81.8045977,4.22222222 L81.8045977,5.27777778 L81.8045977,5.27777778 Z" id="Fill-3" sketch:type="MSShapeGroup"></path>
                <path d="M47.920069,3.73455556 C47.2977471,4.01005556 46.6283678,4.19636111 45.9262069,4.28027778 C46.6426437,3.85119444 47.1930575,3.17247222 47.4526667,2.36338889 C46.7817011,2.76027778 46.0388276,3.04897222 45.2483678,3.20413889 C44.6149425,2.53069444 43.7129195,2.11005556 42.7146667,2.11005556 C40.7974713,2.11005556 39.2435172,3.66119444 39.2435172,5.57491667 C39.2435172,5.84672222 39.2741839,6.11113889 39.3334023,6.36447222 C36.4486207,6.21986111 33.8905977,4.84025 32.1785517,2.74391667 C31.8798161,3.25586111 31.7085057,3.85066667 31.7085057,4.48611111 C31.7085057,5.68838889 32.3213103,6.74869444 33.2529425,7.37041667 C32.684023,7.35247222 32.1489425,7.19677778 31.6804828,6.93711111 C31.679954,6.95136111 31.679954,6.96613889 31.679954,6.98091667 C31.679954,8.65977778 32.8764828,10.0594444 34.4642759,10.37875 C34.1729425,10.4579167 33.8662759,10.4996111 33.5495632,10.4996111 C33.325908,10.4996111 33.1085977,10.4779722 32.8965747,10.4378611 C33.3385977,11.8143056 34.6202529,12.8160278 36.1393103,12.844 C34.9512414,13.7734167 33.4543908,14.3270556 31.828,14.3270556 C31.5477701,14.3270556 31.2717701,14.3106944 31,14.2785 C32.535977,15.26175 34.3611724,15.8354444 36.3211954,15.8354444 C42.7062069,15.8354444 46.1974483,10.5555556 46.1974483,5.97655556 C46.1974483,5.82613889 46.1942759,5.67677778 46.187931,5.52847222 C46.8662989,5.03922222 47.4547816,4.42911111 47.920069,3.73455556" id="Fill-4" sketch:type="MSShapeGroup"></path>
            </g>
        </g>
    </g>
</svg>